<svg xmlns="http://www.w3.org/2000/svg" xmlns:xlink="http://www.w3.org/1999/xlink" width="300" zoomAndPan="magnify" viewBox="0 0 224.87999 225" height="300" preserveAspectRatio="xMidYMid meet" version="1.0"><defs><g/><clipPath id="b7087e305d"><path d="M 19.605469 19.667969 L 205.507812 19.667969 L 205.507812 205.566406 L 19.605469 205.566406 Z M 19.605469 19.667969 " clip-rule="nonzero"/></clipPath></defs><g clip-path="url(#b7087e305d)"><path fill="#ffffff" d="M 112.433594 19.667969 C 110.914062 19.667969 109.398438 19.703125 107.878906 19.777344 C 106.363281 19.851562 104.847656 19.964844 103.335938 20.113281 C 101.824219 20.261719 100.316406 20.449219 98.8125 20.671875 C 97.3125 20.894531 95.816406 21.152344 94.324219 21.449219 C 92.835938 21.746094 91.351562 22.078125 89.878906 22.449219 C 88.40625 22.816406 86.941406 23.222656 85.488281 23.664062 C 84.035156 24.105469 82.59375 24.582031 81.160156 25.09375 C 79.730469 25.605469 78.3125 26.152344 76.910156 26.734375 C 75.507812 27.3125 74.117188 27.929688 72.746094 28.578125 C 71.371094 29.230469 70.015625 29.910156 68.675781 30.628906 C 67.335938 31.34375 66.015625 32.09375 64.710938 32.875 C 63.410156 33.65625 62.125 34.46875 60.863281 35.3125 C 59.597656 36.15625 58.355469 37.03125 57.136719 37.933594 C 55.917969 38.839844 54.71875 39.773438 53.546875 40.738281 C 52.371094 41.703125 51.222656 42.695312 50.09375 43.714844 C 48.96875 44.734375 47.871094 45.78125 46.796875 46.855469 C 45.722656 47.929688 44.675781 49.03125 43.652344 50.15625 C 42.632812 51.28125 41.640625 52.429688 40.679688 53.605469 C 39.714844 54.78125 38.78125 55.976562 37.875 57.195312 C 36.96875 58.417969 36.09375 59.660156 35.25 60.921875 C 34.40625 62.183594 33.59375 63.46875 32.8125 64.773438 C 32.03125 66.074219 31.285156 67.394531 30.566406 68.734375 C 29.851562 70.074219 29.167969 71.433594 28.519531 72.804688 C 27.871094 74.179688 27.253906 75.566406 26.671875 76.972656 C 26.089844 78.375 25.546875 79.792969 25.035156 81.222656 C 24.519531 82.652344 24.046875 84.09375 23.605469 85.546875 C 23.164062 87 22.757812 88.464844 22.390625 89.9375 C 22.019531 91.414062 21.6875 92.894531 21.390625 94.382812 C 21.09375 95.875 20.835938 97.371094 20.613281 98.875 C 20.390625 100.375 20.203125 101.882812 20.054688 103.394531 C 19.90625 104.90625 19.792969 106.421875 19.71875 107.941406 C 19.644531 109.457031 19.605469 110.976562 19.605469 112.496094 C 19.605469 114.011719 19.644531 115.53125 19.71875 117.050781 C 19.792969 118.566406 19.90625 120.082031 20.054688 121.59375 C 20.203125 123.105469 20.390625 124.613281 20.613281 126.113281 C 20.835938 127.617188 21.09375 129.113281 21.390625 130.605469 C 21.6875 132.09375 22.019531 133.574219 22.390625 135.050781 C 22.757812 136.523438 23.164062 137.988281 23.605469 139.441406 C 24.046875 140.894531 24.519531 142.335938 25.035156 143.765625 C 25.546875 145.199219 26.089844 146.613281 26.671875 148.019531 C 27.253906 149.421875 27.871094 150.808594 28.519531 152.183594 C 29.167969 153.554688 29.851562 154.914062 30.566406 156.253906 C 31.285156 157.59375 32.03125 158.914062 32.8125 160.21875 C 33.59375 161.519531 34.40625 162.804688 35.25 164.066406 C 36.09375 165.328125 36.96875 166.570312 37.875 167.792969 C 38.78125 169.011719 39.714844 170.210938 40.679688 171.382812 C 41.640625 172.558594 42.632812 173.707031 43.652344 174.832031 C 44.675781 175.960938 45.722656 177.058594 46.796875 178.132812 C 47.871094 179.207031 48.96875 180.253906 50.09375 181.273438 C 51.222656 182.296875 52.371094 183.289062 53.546875 184.25 C 54.71875 185.214844 55.917969 186.148438 57.136719 187.054688 C 58.355469 187.960938 59.597656 188.832031 60.863281 189.675781 C 62.125 190.523438 63.410156 191.335938 64.710938 192.113281 C 66.015625 192.894531 67.335938 193.644531 68.675781 194.359375 C 70.015625 195.078125 71.371094 195.761719 72.746094 196.410156 C 74.117188 197.058594 75.507812 197.675781 76.910156 198.253906 C 78.3125 198.835938 79.730469 199.382812 81.160156 199.894531 C 82.59375 200.40625 84.035156 200.882812 85.488281 201.324219 C 86.941406 201.765625 88.40625 202.171875 89.878906 202.539062 C 91.351562 202.910156 92.835938 203.242188 94.324219 203.539062 C 95.816406 203.835938 97.3125 204.09375 98.8125 204.316406 C 100.316406 204.539062 101.824219 204.726562 103.335938 204.875 C 104.847656 205.023438 106.363281 205.136719 107.878906 205.210938 C 109.398438 205.285156 110.914062 205.320312 112.433594 205.320312 C 113.953125 205.320312 115.472656 205.285156 116.988281 205.210938 C 118.507812 205.136719 120.019531 205.023438 121.53125 204.875 C 123.046875 204.726562 124.550781 204.539062 126.054688 204.316406 C 127.558594 204.09375 129.054688 203.835938 130.542969 203.539062 C 132.035156 203.242188 133.515625 202.910156 134.988281 202.539062 C 136.464844 202.171875 137.925781 201.765625 139.378906 201.324219 C 140.835938 200.882812 142.277344 200.40625 143.707031 199.894531 C 145.136719 199.382812 146.554688 198.835938 147.957031 198.253906 C 149.363281 197.675781 150.75 197.058594 152.125 196.410156 C 153.496094 195.761719 154.851562 195.078125 156.191406 194.359375 C 157.53125 193.644531 158.855469 192.894531 160.15625 192.113281 C 161.460938 191.335938 162.742188 190.523438 164.007812 189.675781 C 165.269531 188.832031 166.511719 187.960938 167.730469 187.054688 C 168.953125 186.148438 170.148438 185.214844 171.324219 184.25 C 172.496094 183.289062 173.648438 182.296875 174.773438 181.273438 C 175.898438 180.253906 177 179.207031 178.074219 178.132812 C 179.148438 177.058594 180.195312 175.960938 181.214844 174.832031 C 182.234375 173.707031 183.226562 172.558594 184.191406 171.382812 C 185.15625 170.210938 186.089844 169.011719 186.992188 167.792969 C 187.898438 166.570312 188.773438 165.328125 189.617188 164.066406 C 190.460938 162.804688 191.273438 161.519531 192.054688 160.21875 C 192.835938 158.914062 193.585938 157.59375 194.300781 156.253906 C 195.015625 154.914062 195.699219 153.554688 196.347656 152.183594 C 197 150.808594 197.613281 149.421875 198.195312 148.019531 C 198.777344 146.613281 199.324219 145.199219 199.835938 143.765625 C 200.347656 142.335938 200.824219 140.894531 201.265625 139.441406 C 201.707031 137.988281 202.109375 136.523438 202.480469 135.050781 C 202.847656 133.574219 203.183594 132.09375 203.476562 130.605469 C 203.773438 129.113281 204.035156 127.617188 204.257812 126.113281 C 204.480469 124.613281 204.664062 123.105469 204.816406 121.59375 C 204.964844 120.082031 205.074219 118.566406 205.148438 117.050781 C 205.222656 115.53125 205.261719 114.011719 205.261719 112.496094 C 205.261719 110.976562 205.222656 109.457031 205.144531 107.941406 C 205.070312 106.425781 204.957031 104.910156 204.804688 103.398438 C 204.65625 101.886719 204.46875 100.382812 204.242188 98.878906 C 204.019531 97.375 203.757812 95.882812 203.460938 94.390625 C 203.164062 92.902344 202.828125 91.421875 202.460938 89.949219 C 202.089844 88.476562 201.683594 87.011719 201.242188 85.558594 C 200.800781 84.105469 200.320312 82.664062 199.808594 81.234375 C 199.296875 79.804688 198.75 78.390625 198.167969 76.988281 C 197.585938 75.585938 196.96875 74.195312 196.320312 72.824219 C 195.667969 71.453125 194.988281 70.09375 194.269531 68.757812 C 193.554688 67.417969 192.804688 66.097656 192.023438 64.792969 C 191.242188 63.492188 190.429688 62.210938 189.585938 60.945312 C 188.742188 59.683594 187.867188 58.441406 186.960938 57.222656 C 186.058594 56.003906 185.121094 54.808594 184.160156 53.632812 C 183.195312 52.460938 182.203125 51.308594 181.183594 50.183594 C 180.164062 49.058594 179.117188 47.960938 178.042969 46.886719 C 176.96875 45.8125 175.871094 44.765625 174.742188 43.746094 C 173.617188 42.726562 172.46875 41.734375 171.296875 40.769531 C 170.121094 39.804688 168.925781 38.871094 167.707031 37.96875 C 166.484375 37.0625 165.246094 36.1875 163.980469 35.34375 C 162.71875 34.5 161.4375 33.6875 160.132812 32.90625 C 158.832031 32.125 157.511719 31.375 156.171875 30.660156 C 154.832031 29.941406 153.476562 29.257812 152.105469 28.609375 C 150.730469 27.957031 149.34375 27.34375 147.941406 26.761719 C 146.539062 26.179688 145.121094 25.632812 143.691406 25.121094 C 142.261719 24.605469 140.820312 24.128906 139.367188 23.6875 C 137.917969 23.246094 136.453125 22.839844 134.980469 22.46875 C 133.507812 22.097656 132.027344 21.765625 130.535156 21.46875 C 129.046875 21.171875 127.550781 20.910156 126.050781 20.683594 C 124.546875 20.460938 123.042969 20.273438 121.53125 20.125 C 120.019531 19.972656 118.503906 19.859375 116.988281 19.785156 C 115.472656 19.707031 113.953125 19.667969 112.433594 19.667969 Z M 112.433594 190.46875 C 111.160156 190.46875 109.882812 190.4375 108.609375 190.375 C 107.332031 190.3125 106.0625 190.21875 104.792969 190.09375 C 103.523438 189.96875 102.253906 189.8125 100.992188 189.625 C 99.730469 189.4375 98.472656 189.21875 97.222656 188.972656 C 95.96875 188.722656 94.726562 188.441406 93.488281 188.132812 C 92.25 187.824219 91.019531 187.480469 89.800781 187.113281 C 88.578125 186.742188 87.367188 186.339844 86.164062 185.910156 C 84.964844 185.480469 83.773438 185.023438 82.59375 184.535156 C 81.414062 184.046875 80.25 183.527344 79.097656 182.984375 C 77.941406 182.4375 76.800781 181.863281 75.675781 181.261719 C 74.550781 180.660156 73.441406 180.03125 72.347656 179.375 C 71.253906 178.71875 70.175781 178.039062 69.113281 177.328125 C 68.050781 176.621094 67.007812 175.882812 65.984375 175.125 C 64.960938 174.363281 63.953125 173.578125 62.96875 172.769531 C 61.980469 171.960938 61.015625 171.128906 60.070312 170.269531 C 59.125 169.414062 58.199219 168.535156 57.296875 167.632812 C 56.394531 166.730469 55.515625 165.804688 54.660156 164.859375 C 53.800781 163.914062 52.96875 162.949219 52.160156 161.960938 C 51.347656 160.976562 50.5625 159.96875 49.804688 158.945312 C 49.042969 157.917969 48.308594 156.875 47.601562 155.816406 C 46.890625 154.753906 46.210938 153.675781 45.554688 152.582031 C 44.898438 151.488281 44.269531 150.378906 43.667969 149.25 C 43.066406 148.125 42.492188 146.988281 41.945312 145.832031 C 41.398438 144.679688 40.882812 143.511719 40.394531 142.335938 C 39.90625 141.15625 39.449219 139.964844 39.015625 138.761719 C 38.585938 137.5625 38.1875 136.351562 37.816406 135.128906 C 37.445312 133.90625 37.105469 132.679688 36.796875 131.441406 C 36.484375 130.203125 36.207031 128.957031 35.957031 127.707031 C 35.707031 126.453125 35.492188 125.199219 35.304688 123.9375 C 35.117188 122.671875 34.960938 121.40625 34.835938 120.136719 C 34.710938 118.867188 34.617188 117.59375 34.554688 116.320312 C 34.492188 115.046875 34.460938 113.769531 34.460938 112.496094 C 34.460938 111.21875 34.492188 109.941406 34.554688 108.667969 C 34.617188 107.394531 34.710938 106.121094 34.835938 104.851562 C 34.960938 103.582031 35.117188 102.316406 35.304688 101.054688 C 35.492188 99.789062 35.707031 98.535156 35.957031 97.28125 C 36.207031 96.03125 36.484375 94.785156 36.796875 93.546875 C 37.105469 92.308594 37.445312 91.082031 37.816406 89.859375 C 38.1875 88.636719 38.585938 87.425781 39.015625 86.226562 C 39.449219 85.023438 39.90625 83.832031 40.394531 82.65625 C 40.882812 81.476562 41.398438 80.308594 41.945312 79.15625 C 42.492188 78.003906 43.066406 76.863281 43.667969 75.738281 C 44.269531 74.613281 44.898438 73.5 45.554688 72.40625 C 46.210938 71.3125 46.890625 70.234375 47.601562 69.171875 C 48.308594 68.113281 49.042969 67.070312 49.804688 66.042969 C 50.5625 65.019531 51.347656 64.015625 52.160156 63.027344 C 52.96875 62.042969 53.800781 61.074219 54.660156 60.128906 C 55.515625 59.183594 56.394531 58.261719 57.296875 57.359375 C 58.199219 56.457031 59.125 55.574219 60.070312 54.71875 C 61.015625 53.863281 61.980469 53.027344 62.96875 52.21875 C 63.953125 51.410156 64.960938 50.625 65.984375 49.863281 C 67.007812 49.105469 68.050781 48.371094 69.113281 47.660156 C 70.175781 46.953125 71.253906 46.269531 72.347656 45.613281 C 73.441406 44.957031 74.550781 44.328125 75.675781 43.726562 C 76.800781 43.125 77.941406 42.550781 79.097656 42.003906 C 80.25 41.460938 81.414062 40.941406 82.59375 40.453125 C 83.773438 39.964844 84.964844 39.507812 86.164062 39.078125 C 87.367188 38.648438 88.578125 38.246094 89.800781 37.878906 C 91.019531 37.507812 92.25 37.167969 93.488281 36.855469 C 94.726562 36.546875 95.96875 36.265625 97.222656 36.019531 C 98.472656 35.769531 99.730469 35.550781 100.992188 35.363281 C 102.253906 35.175781 103.523438 35.019531 104.792969 34.894531 C 106.0625 34.769531 107.332031 34.675781 108.609375 34.613281 C 109.882812 34.550781 111.160156 34.519531 112.433594 34.519531 C 113.710938 34.519531 114.984375 34.550781 116.261719 34.613281 C 117.535156 34.675781 118.808594 34.769531 120.078125 34.894531 C 121.347656 35.019531 122.613281 35.175781 123.875 35.363281 C 125.136719 35.550781 126.394531 35.769531 127.648438 36.019531 C 128.898438 36.265625 130.144531 36.546875 131.378906 36.855469 C 132.617188 37.167969 133.847656 37.507812 135.070312 37.875 C 136.289062 38.246094 137.5 38.648438 138.703125 39.078125 C 139.90625 39.507812 141.09375 39.964844 142.273438 40.453125 C 143.453125 40.941406 144.621094 41.460938 145.773438 42.003906 C 146.925781 42.550781 148.066406 43.125 149.191406 43.726562 C 150.316406 44.328125 151.425781 44.957031 152.523438 45.613281 C 153.617188 46.269531 154.695312 46.953125 155.753906 47.660156 C 156.816406 48.371094 157.859375 49.105469 158.882812 49.863281 C 159.910156 50.625 160.914062 51.410156 161.902344 52.21875 C 162.886719 53.027344 163.855469 53.863281 164.800781 54.71875 C 165.746094 55.574219 166.667969 56.457031 167.570312 57.359375 C 168.472656 58.261719 169.351562 59.183594 170.210938 60.128906 C 171.066406 61.074219 171.898438 62.042969 172.710938 63.027344 C 173.519531 64.015625 174.304688 65.019531 175.066406 66.042969 C 175.824219 67.070312 176.558594 68.113281 177.269531 69.171875 C 177.976562 70.234375 178.660156 71.3125 179.316406 72.40625 C 179.972656 73.5 180.601562 74.613281 181.203125 75.738281 C 181.804688 76.863281 182.378906 78.003906 182.921875 79.15625 C 183.46875 80.308594 183.984375 81.476562 184.472656 82.65625 C 184.960938 83.832031 185.421875 85.023438 185.851562 86.226562 C 186.28125 87.425781 186.679688 88.636719 187.050781 89.859375 C 187.421875 91.082031 187.761719 92.308594 188.074219 93.546875 C 188.382812 94.785156 188.664062 96.03125 188.910156 97.28125 C 189.160156 98.535156 189.378906 99.789062 189.566406 101.054688 C 189.753906 102.316406 189.910156 103.582031 190.035156 104.851562 C 190.160156 106.121094 190.253906 107.394531 190.316406 108.667969 C 190.378906 109.941406 190.410156 111.21875 190.410156 112.496094 C 190.40625 113.769531 190.375 115.046875 190.3125 116.320312 C 190.246094 117.59375 190.152344 118.863281 190.027344 120.132812 C 189.898438 121.402344 189.742188 122.667969 189.554688 123.929688 C 189.367188 125.191406 189.144531 126.449219 188.894531 127.699219 C 188.644531 128.953125 188.367188 130.195312 188.054688 131.433594 C 187.742188 132.671875 187.402344 133.898438 187.03125 135.121094 C 186.660156 136.339844 186.257812 137.550781 185.828125 138.75 C 185.398438 139.953125 184.9375 141.140625 184.449219 142.320312 C 183.960938 143.5 183.445312 144.664062 182.898438 145.816406 C 182.351562 146.96875 181.777344 148.109375 181.175781 149.234375 C 180.574219 150.359375 179.945312 151.46875 179.289062 152.5625 C 178.632812 153.65625 177.949219 154.734375 177.242188 155.792969 C 176.53125 156.855469 175.796875 157.898438 175.035156 158.921875 C 174.277344 159.945312 173.492188 160.949219 172.683594 161.9375 C 171.871094 162.921875 171.039062 163.890625 170.183594 164.832031 C 169.328125 165.777344 168.445312 166.703125 167.542969 167.605469 C 166.644531 168.507812 165.71875 169.386719 164.773438 170.242188 C 163.828125 171.101562 162.863281 171.933594 161.878906 172.742188 C 160.890625 173.550781 159.886719 174.335938 158.859375 175.097656 C 157.835938 175.855469 156.792969 176.589844 155.734375 177.300781 C 154.671875 178.007812 153.597656 178.691406 152.503906 179.347656 C 151.40625 180.003906 150.296875 180.632812 149.171875 181.234375 C 148.050781 181.835938 146.910156 182.410156 145.757812 182.957031 C 144.605469 183.503906 143.4375 184.019531 142.261719 184.511719 C 141.082031 185 139.890625 185.457031 138.691406 185.890625 C 137.492188 186.320312 136.28125 186.71875 135.058594 187.089844 C 133.839844 187.460938 132.609375 187.804688 131.371094 188.113281 C 130.136719 188.425781 128.890625 188.707031 127.640625 188.957031 C 126.390625 189.207031 125.132812 189.425781 123.871094 189.613281 C 122.609375 189.800781 121.34375 189.960938 120.074219 190.085938 C 118.804688 190.210938 117.535156 190.308594 116.257812 190.371094 C 114.984375 190.433594 113.710938 190.46875 112.433594 190.46875 Z M 112.433594 79.078125 C 113.410156 79.078125 114.375 78.980469 115.332031 78.792969 C 116.289062 78.601562 117.21875 78.320312 118.117188 77.945312 C 119.019531 77.574219 119.875 77.117188 120.6875 76.574219 C 121.496094 76.03125 122.246094 75.414062 122.9375 74.726562 C 123.625 74.035156 124.242188 73.285156 124.785156 72.476562 C 125.324219 71.664062 125.78125 70.808594 126.15625 69.90625 C 126.53125 69.007812 126.8125 68.078125 127 67.121094 C 127.191406 66.164062 127.285156 65.199219 127.285156 64.222656 C 127.285156 63.25 127.191406 62.28125 127 61.328125 C 126.8125 60.371094 126.53125 59.441406 126.15625 58.539062 C 125.78125 57.640625 125.324219 56.785156 124.785156 55.972656 C 124.242188 55.160156 123.625 54.410156 122.9375 53.722656 C 122.246094 53.03125 121.496094 52.417969 120.6875 51.875 C 119.875 51.332031 119.019531 50.875 118.117188 50.503906 C 117.21875 50.128906 116.289062 49.847656 115.332031 49.65625 C 114.375 49.46875 113.410156 49.371094 112.433594 49.371094 C 111.460938 49.371094 110.492188 49.46875 109.535156 49.65625 C 108.582031 49.847656 107.652344 50.128906 106.75 50.503906 C 105.851562 50.875 104.992188 51.332031 104.183594 51.875 C 103.371094 52.417969 102.621094 53.03125 101.933594 53.722656 C 101.242188 54.410156 100.625 55.160156 100.085938 55.972656 C 99.542969 56.785156 99.085938 57.640625 98.710938 58.539062 C 98.339844 59.441406 98.058594 60.371094 97.867188 61.328125 C 97.675781 62.28125 97.582031 63.25 97.582031 64.222656 C 97.582031 65.199219 97.675781 66.164062 97.867188 67.121094 C 98.058594 68.078125 98.339844 69.007812 98.710938 69.90625 C 99.085938 70.808594 99.542969 71.664062 100.085938 72.476562 C 100.625 73.285156 101.242188 74.035156 101.933594 74.726562 C 102.621094 75.414062 103.371094 76.03125 104.183594 76.574219 C 104.992188 77.117188 105.851562 77.574219 106.75 77.945312 C 107.652344 78.320312 108.582031 78.601562 109.535156 78.792969 C 110.492188 78.980469 111.460938 79.078125 112.433594 79.078125 Z M 152.210938 79.152344 L 113.351562 84.804688 C 112.742188 84.894531 112.128906 84.894531 111.515625 84.804688 L 72.660156 79.152344 C 72.179688 79.082031 71.695312 79.0625 71.207031 79.089844 C 70.722656 79.117188 70.242188 79.1875 69.769531 79.308594 C 69.300781 79.429688 68.84375 79.59375 68.40625 79.804688 C 67.964844 80.015625 67.550781 80.265625 67.160156 80.558594 C 66.769531 80.847656 66.414062 81.175781 66.085938 81.539062 C 65.761719 81.898438 65.476562 82.289062 65.226562 82.707031 C 64.976562 83.128906 64.769531 83.566406 64.609375 84.023438 C 64.445312 84.484375 64.328125 84.953125 64.257812 85.4375 C 64.191406 85.917969 64.167969 86.402344 64.191406 86.886719 C 64.21875 87.375 64.289062 87.851562 64.410156 88.324219 C 64.527344 88.796875 64.691406 89.253906 64.902344 89.691406 C 65.109375 90.132812 65.359375 90.546875 65.648438 90.9375 C 65.941406 91.328125 66.265625 91.6875 66.628906 92.015625 C 66.988281 92.339844 67.378906 92.628906 67.796875 92.878906 C 68.214844 93.128906 68.652344 93.335938 69.109375 93.5 C 69.570312 93.664062 70.039062 93.78125 70.519531 93.851562 L 94.4375 97.332031 C 94.65625 97.363281 94.859375 97.433594 95.054688 97.539062 C 95.246094 97.644531 95.414062 97.78125 95.558594 97.945312 C 95.699219 98.113281 95.8125 98.296875 95.886719 98.503906 C 95.964844 98.707031 96.003906 98.921875 96.003906 99.140625 L 96.003906 127.796875 L 95.367188 130.726562 L 80.027344 164.449219 C 79.78125 164.871094 79.582031 165.3125 79.421875 165.773438 C 79.261719 166.234375 79.148438 166.703125 79.085938 167.1875 C 79.019531 167.671875 79 168.15625 79.03125 168.644531 C 79.058594 169.128906 79.136719 169.609375 79.261719 170.082031 C 79.386719 170.550781 79.554688 171.007812 79.765625 171.445312 C 79.980469 171.882812 80.234375 172.296875 80.53125 172.683594 C 80.824219 173.074219 81.15625 173.429688 81.519531 173.753906 C 81.886719 174.074219 82.28125 174.359375 82.699219 174.605469 C 83.121094 174.851562 83.5625 175.054688 84.023438 175.210938 C 84.484375 175.371094 84.957031 175.484375 85.441406 175.550781 C 85.921875 175.613281 86.410156 175.632812 86.894531 175.601562 C 87.382812 175.574219 87.859375 175.496094 88.332031 175.371094 C 88.804688 175.25 89.257812 175.078125 89.695312 174.867188 C 90.136719 174.652344 90.546875 174.398438 90.9375 174.101562 C 91.324219 173.808594 91.679688 173.476562 92.003906 173.113281 C 92.328125 172.746094 92.613281 172.355469 92.855469 171.933594 L 110.640625 134.933594 C 110.8125 134.574219 111.0625 134.292969 111.398438 134.082031 C 111.734375 133.871094 112.101562 133.765625 112.496094 133.765625 C 112.890625 133.765625 113.257812 133.871094 113.59375 134.082031 C 113.925781 134.296875 114.179688 134.578125 114.351562 134.9375 L 132.007812 171.933594 C 132.253906 172.351562 132.539062 172.746094 132.863281 173.109375 C 133.1875 173.472656 133.542969 173.800781 133.929688 174.09375 C 134.320312 174.386719 134.730469 174.640625 135.171875 174.855469 C 135.609375 175.066406 136.0625 175.234375 136.535156 175.359375 C 137.003906 175.480469 137.484375 175.558594 137.96875 175.585938 C 138.453125 175.617188 138.9375 175.597656 139.421875 175.53125 C 139.902344 175.464844 140.375 175.351562 140.835938 175.195312 C 141.296875 175.035156 141.734375 174.832031 142.15625 174.589844 C 142.578125 174.34375 142.96875 174.058594 143.335938 173.738281 C 143.699219 173.414062 144.027344 173.058594 144.324219 172.671875 C 144.617188 172.285156 144.875 171.871094 145.085938 171.4375 C 145.300781 171 145.472656 170.542969 145.59375 170.074219 C 145.71875 169.601562 145.796875 169.125 145.828125 168.640625 C 145.859375 168.152344 145.84375 167.667969 145.777344 167.1875 C 145.714844 166.703125 145.601562 166.234375 145.445312 165.773438 C 145.289062 165.3125 145.089844 164.871094 144.84375 164.449219 L 129.261719 130.191406 L 128.867188 128.371094 L 128.867188 99.140625 C 128.867188 98.921875 128.90625 98.710938 128.980469 98.503906 C 129.058594 98.296875 129.167969 98.113281 129.3125 97.945312 C 129.453125 97.78125 129.621094 97.644531 129.816406 97.539062 C 130.007812 97.433594 130.214844 97.363281 130.429688 97.332031 L 154.34375 93.851562 C 154.824219 93.78125 155.296875 93.664062 155.753906 93.5 C 156.210938 93.335938 156.652344 93.128906 157.070312 92.878906 C 157.488281 92.628906 157.875 92.34375 158.238281 92.015625 C 158.597656 91.691406 158.925781 91.332031 159.214844 90.941406 C 159.503906 90.550781 159.753906 90.136719 159.964844 89.695312 C 160.171875 89.257812 160.335938 88.800781 160.457031 88.328125 C 160.578125 87.855469 160.648438 87.378906 160.675781 86.890625 C 160.699219 86.40625 160.675781 85.921875 160.605469 85.441406 C 160.539062 84.957031 160.421875 84.488281 160.257812 84.027344 C 160.097656 83.570312 159.890625 83.132812 159.640625 82.714844 C 159.394531 82.292969 159.105469 81.90625 158.78125 81.542969 C 158.457031 81.179688 158.097656 80.851562 157.710938 80.5625 C 157.320312 80.269531 156.90625 80.019531 156.464844 79.808594 C 156.027344 79.597656 155.570312 79.433594 155.101562 79.3125 C 154.628906 79.191406 154.148438 79.117188 153.664062 79.089844 C 153.179688 79.0625 152.695312 79.085938 152.210938 79.152344 Z M 152.210938 79.152344 " fill-opacity="1" fill-rule="nonzero"/></g><g fill="#ffffff" fill-opacity="1"><g transform="translate(108.373256, 111.930629)"><g><path d="M 0.375 -1.171875 L 0.828125 -1.171875 L 0.828125 -1 L 0.375 -1 L 0.375 -0.453125 C 0.375 -0.398438 0.378906 -0.351562 0.390625 -0.3125 C 0.398438 -0.269531 0.410156 -0.238281 0.421875 -0.21875 C 0.441406 -0.195312 0.46875 -0.179688 0.5 -0.171875 C 0.53125 -0.160156 0.5625 -0.15625 0.59375 -0.15625 C 0.65625 -0.15625 0.707031 -0.160156 0.75 -0.171875 C 0.789062 -0.191406 0.816406 -0.207031 0.828125 -0.21875 L 0.875 -0.03125 C 0.851562 -0.0195312 0.816406 -0.0078125 0.765625 0 C 0.710938 0.0195312 0.648438 0.03125 0.578125 0.03125 C 0.492188 0.03125 0.425781 0.0195312 0.375 0 C 0.320312 -0.0195312 0.28125 -0.0507812 0.25 -0.09375 C 0.21875 -0.132812 0.195312 -0.1875 0.1875 -0.25 C 0.175781 -0.3125 0.171875 -0.378906 0.171875 -0.453125 L 0.171875 -1.5 L 0.375 -1.546875 Z M 0.375 -1.171875 "/></g></g></g><g fill="#ffffff" fill-opacity="1"><g transform="translate(109.282907, 111.930629)"><g><path d="M 0.390625 0 L 0.1875 0 L 0.1875 -1.171875 L 0.390625 -1.171875 Z M 0.28125 -1.390625 C 0.25 -1.390625 0.21875 -1.398438 0.1875 -1.421875 C 0.164062 -1.453125 0.15625 -1.488281 0.15625 -1.53125 C 0.15625 -1.570312 0.164062 -1.601562 0.1875 -1.625 C 0.21875 -1.65625 0.25 -1.671875 0.28125 -1.671875 C 0.320312 -1.671875 0.351562 -1.65625 0.375 -1.625 C 0.40625 -1.601562 0.421875 -1.570312 0.421875 -1.53125 C 0.421875 -1.488281 0.40625 -1.453125 0.375 -1.421875 C 0.351562 -1.398438 0.320312 -1.390625 0.28125 -1.390625 Z M 0.28125 -1.390625 "/></g></g></g><g fill="#ffffff" fill-opacity="1"><g transform="translate(109.855399, 111.930629)"><g><path d="M 0.1875 -1.140625 C 0.226562 -1.148438 0.285156 -1.160156 0.359375 -1.171875 C 0.441406 -1.191406 0.535156 -1.203125 0.640625 -1.203125 C 0.722656 -1.203125 0.789062 -1.191406 0.84375 -1.171875 C 0.894531 -1.148438 0.9375 -1.117188 0.96875 -1.078125 C 0.976562 -1.085938 0.992188 -1.097656 1.015625 -1.109375 C 1.035156 -1.128906 1.0625 -1.144531 1.09375 -1.15625 C 1.132812 -1.164062 1.171875 -1.175781 1.203125 -1.1875 C 1.242188 -1.195312 1.289062 -1.203125 1.34375 -1.203125 C 1.4375 -1.203125 1.507812 -1.1875 1.5625 -1.15625 C 1.625 -1.132812 1.671875 -1.097656 1.703125 -1.046875 C 1.734375 -1.003906 1.753906 -0.945312 1.765625 -0.875 C 1.773438 -0.8125 1.78125 -0.738281 1.78125 -0.65625 L 1.78125 0 L 1.578125 0 L 1.578125 -0.609375 C 1.578125 -0.679688 1.570312 -0.742188 1.5625 -0.796875 C 1.550781 -0.847656 1.535156 -0.890625 1.515625 -0.921875 C 1.503906 -0.953125 1.476562 -0.972656 1.4375 -0.984375 C 1.40625 -1.003906 1.367188 -1.015625 1.328125 -1.015625 C 1.253906 -1.015625 1.191406 -1.003906 1.140625 -0.984375 C 1.097656 -0.960938 1.066406 -0.945312 1.046875 -0.9375 C 1.054688 -0.894531 1.066406 -0.847656 1.078125 -0.796875 C 1.085938 -0.753906 1.09375 -0.707031 1.09375 -0.65625 L 1.09375 0 L 0.875 0 L 0.875 -0.609375 C 0.875 -0.679688 0.867188 -0.742188 0.859375 -0.796875 C 0.859375 -0.847656 0.847656 -0.890625 0.828125 -0.921875 C 0.804688 -0.953125 0.78125 -0.972656 0.75 -0.984375 C 0.71875 -1.003906 0.675781 -1.015625 0.625 -1.015625 C 0.601562 -1.015625 0.578125 -1.015625 0.546875 -1.015625 C 0.523438 -1.015625 0.503906 -1.007812 0.484375 -1 C 0.460938 -1 0.441406 -1 0.421875 -1 C 0.410156 -1 0.398438 -1 0.390625 -1 L 0.390625 0 L 0.1875 0 Z M 0.1875 -1.140625 "/></g></g></g><g fill="#ffffff" fill-opacity="1"><g transform="translate(111.803682, 111.930629)"><g><path d="M 0.109375 -0.59375 C 0.109375 -0.695312 0.125 -0.785156 0.15625 -0.859375 C 0.1875 -0.929688 0.226562 -0.992188 0.28125 -1.046875 C 0.332031 -1.097656 0.390625 -1.132812 0.453125 -1.15625 C 0.515625 -1.1875 0.582031 -1.203125 0.65625 -1.203125 C 0.8125 -1.203125 0.929688 -1.148438 1.015625 -1.046875 C 1.097656 -0.953125 1.140625 -0.804688 1.140625 -0.609375 C 1.140625 -0.597656 1.140625 -0.582031 1.140625 -0.5625 C 1.140625 -0.550781 1.140625 -0.539062 1.140625 -0.53125 L 0.328125 -0.53125 C 0.335938 -0.40625 0.375 -0.3125 0.4375 -0.25 C 0.5 -0.1875 0.597656 -0.15625 0.734375 -0.15625 C 0.804688 -0.15625 0.867188 -0.160156 0.921875 -0.171875 C 0.972656 -0.191406 1.007812 -0.207031 1.03125 -0.21875 L 1.0625 -0.03125 C 1.039062 -0.0195312 0.992188 -0.0078125 0.921875 0 C 0.859375 0.0195312 0.785156 0.03125 0.703125 0.03125 C 0.609375 0.03125 0.519531 0.015625 0.4375 -0.015625 C 0.363281 -0.046875 0.300781 -0.0859375 0.25 -0.140625 C 0.207031 -0.203125 0.171875 -0.269531 0.140625 -0.34375 C 0.117188 -0.414062 0.109375 -0.5 0.109375 -0.59375 Z M 0.921875 -0.703125 C 0.921875 -0.796875 0.894531 -0.875 0.84375 -0.9375 C 0.800781 -1 0.738281 -1.03125 0.65625 -1.03125 C 0.601562 -1.03125 0.554688 -1.019531 0.515625 -1 C 0.484375 -0.976562 0.453125 -0.953125 0.421875 -0.921875 C 0.398438 -0.890625 0.378906 -0.851562 0.359375 -0.8125 C 0.347656 -0.78125 0.34375 -0.742188 0.34375 -0.703125 Z M 0.921875 -0.703125 "/></g></g></g></svg>