<svg xmlns="http://www.w3.org/2000/svg" xmlns:xlink="http://www.w3.org/1999/xlink" width="300" zoomAndPan="magnify" viewBox="0 0 224.87999 225" height="300" preserveAspectRatio="xMidYMid meet" version="1.0"><defs><clipPath id="15dc8dd6ae"><path d="M 31 21.515625 L 201 21.515625 L 201 191 L 31 191 Z M 31 21.515625 " clip-rule="nonzero"/></clipPath><clipPath id="415b27aa26"><path d="M 104.210938 59.183594 L 172.425781 59.183594 L 172.425781 121.398438 L 104.210938 121.398438 Z M 104.210938 59.183594 " clip-rule="nonzero"/></clipPath></defs><g clip-path="url(#15dc8dd6ae)"><path fill="#ffffff" d="M 181.144531 40.6875 C 168.886719 28.425781 152.59375 21.683594 135.265625 21.683594 C 117.925781 21.683594 101.628906 28.425781 89.367188 40.6875 C 77.105469 52.9375 70.351562 69.246094 70.351562 86.585938 C 70.351562 101.65625 75.472656 115.933594 84.859375 127.46875 L 72.332031 139.996094 L 69.476562 137.140625 L 31.472656 175.136719 L 46.683594 190.351562 L 84.679688 152.355469 L 81.835938 149.5 L 94.363281 136.972656 C 105.898438 146.371094 120.175781 151.480469 135.246094 151.480469 C 152.585938 151.480469 168.882812 144.726562 181.144531 132.464844 C 206.453125 107.160156 206.453125 65.992188 181.144531 40.6875 Z M 174.140625 125.449219 C 163.75 135.839844 149.945312 141.554688 135.246094 141.554688 C 120.558594 141.554688 106.757812 135.832031 96.367188 125.449219 C 85.988281 115.070312 80.269531 101.265625 80.269531 86.578125 C 80.269531 71.890625 85.988281 58.078125 96.371094 47.699219 C 106.75 37.308594 120.554688 31.59375 135.253906 31.59375 C 149.941406 31.59375 163.742188 37.3125 174.132812 47.699219 C 195.570312 69.144531 195.570312 104.027344 174.140625 125.449219 Z M 174.140625 125.449219 " fill-opacity="1" fill-rule="nonzero"/></g><path fill="#ffffff" d="M 135.253906 38.988281 C 122.539062 38.988281 110.597656 43.945312 101.605469 52.925781 C 100.253906 54.28125 100.253906 56.484375 101.605469 57.839844 C 102.960938 59.195312 105.167969 59.195312 106.519531 57.839844 C 114.195312 50.164062 124.402344 45.945312 135.253906 45.945312 C 146.117188 45.945312 156.316406 50.164062 163.996094 57.839844 C 164.667969 58.523438 165.558594 58.855469 166.457031 58.855469 C 167.335938 58.855469 168.226562 58.523438 168.917969 57.839844 C 170.269531 56.484375 170.269531 54.28125 168.917969 52.925781 C 159.917969 43.945312 147.96875 38.988281 135.253906 38.988281 Z M 135.253906 38.988281 " fill-opacity="1" fill-rule="nonzero"/><path fill="#ffffff" d="M 22.558594 184.0625 C 18.679688 187.929688 18.679688 194.21875 22.558594 198.082031 L 23.738281 199.273438 C 27.617188 203.144531 33.898438 203.144531 37.773438 199.273438 L 42.996094 194.050781 L 27.78125 178.835938 Z M 22.558594 184.0625 " fill-opacity="1" fill-rule="nonzero"/><g clip-path="url(#415b27aa26)"><path fill="#ffffff" d="M 144.488281 62.820312 C 143.203125 60.574219 140.832031 59.183594 138.289062 59.183594 C 135.75 59.183594 133.375 60.574219 132.054688 62.890625 L 105.390625 110.628906 L 105.113281 111.097656 C 104.53125 112.144531 104.226562 113.335938 104.226562 114.535156 C 104.226562 118.449219 107.410156 121.632812 111.324219 121.632812 L 165.257812 121.632812 C 169.171875 121.632812 172.355469 118.449219 172.355469 114.535156 C 172.355469 113.335938 172.046875 112.144531 171.445312 111.054688 Z M 165.257812 118.792969 L 111.324219 118.792969 C 108.976562 118.792969 107.066406 116.882812 107.066406 114.535156 C 107.066406 113.804688 107.242188 113.109375 107.574219 112.511719 L 134.554688 64.230469 C 135.335938 62.871094 136.765625 62.019531 138.289062 62.019531 C 139.816406 62.019531 141.246094 62.871094 142.046875 64.273438 L 168.75 112.085938 L 168.980469 112.46875 C 169.335938 113.109375 169.515625 113.804688 169.515625 114.535156 C 169.515625 116.882812 167.605469 118.792969 165.257812 118.792969 Z M 165.257812 118.792969 " fill-opacity="1" fill-rule="nonzero"/></g><path fill="#ffffff" d="M 141.128906 110.277344 C 141.128906 110.65625 141.058594 111.015625 140.914062 111.363281 C 140.769531 111.710938 140.5625 112.019531 140.296875 112.285156 C 140.03125 112.550781 139.722656 112.757812 139.375 112.902344 C 139.027344 113.046875 138.667969 113.117188 138.289062 113.117188 C 137.914062 113.117188 137.550781 113.046875 137.203125 112.902344 C 136.855469 112.757812 136.550781 112.550781 136.28125 112.285156 C 136.015625 112.019531 135.8125 111.710938 135.667969 111.363281 C 135.523438 111.015625 135.453125 110.65625 135.453125 110.277344 C 135.453125 109.902344 135.523438 109.539062 135.667969 109.191406 C 135.8125 108.84375 136.015625 108.539062 136.28125 108.269531 C 136.550781 108.003906 136.855469 107.800781 137.203125 107.65625 C 137.550781 107.511719 137.914062 107.441406 138.289062 107.441406 C 138.667969 107.441406 139.027344 107.511719 139.375 107.65625 C 139.722656 107.800781 140.03125 108.003906 140.296875 108.269531 C 140.5625 108.539062 140.769531 108.84375 140.914062 109.191406 C 141.058594 109.539062 141.128906 109.902344 141.128906 110.277344 Z M 141.128906 110.277344 " fill-opacity="1" fill-rule="nonzero"/><path fill="#ffffff" d="M 138.289062 76.214844 C 136.730469 76.214844 135.453125 77.492188 135.453125 79.054688 C 135.453125 79.113281 135.484375 79.164062 135.484375 79.222656 L 135.453125 79.222656 L 136.871094 103.183594 L 136.871094 103.265625 C 136.929688 104.035156 137.523438 104.601562 138.289062 104.601562 C 139.058594 104.601562 139.652344 104.035156 139.710938 103.265625 L 139.710938 103.183594 L 141.128906 79.222656 L 141.09375 79.222656 C 141.097656 79.164062 141.128906 79.113281 141.128906 79.054688 C 141.128906 77.492188 139.851562 76.214844 138.289062 76.214844 Z M 138.289062 76.214844 " fill-opacity="1" fill-rule="nonzero"/></svg>