<svg xmlns="http://www.w3.org/2000/svg" xmlns:xlink="http://www.w3.org/1999/xlink" width="300" zoomAndPan="magnify" viewBox="0 0 224.87999 225" height="300" preserveAspectRatio="xMidYMid meet" version="1.0"><defs><g/><clipPath id="5070d8ac92"><path d="M 19.605469 20.621094 L 204 20.621094 L 204 204.273438 L 19.605469 204.273438 Z M 19.605469 20.621094 " clip-rule="nonzero"/></clipPath><clipPath id="2173c7c23d"><path d="M 162 125 L 214.503906 125 L 214.503906 187 L 162 187 Z M 162 125 " clip-rule="nonzero"/></clipPath></defs><path fill="#ffffff" d="M 107.3125 165.546875 C 106.691406 165.546875 106.1875 164.8125 106.1875 163.90625 L 106.1875 156.550781 L 104.832031 156.261719 C 90.949219 153.320312 80.574219 142.511719 79.605469 129.980469 C 79.492188 128.558594 79.679688 127.9375 80.460938 127.085938 C 81.183594 126.308594 82.789062 126.242188 84.367188 126.242188 L 90.828125 126.242188 C 93.777344 126.242188 95.375 127.222656 95.574219 129.152344 C 96.3125 136.316406 103.734375 141.925781 112.480469 141.925781 C 115.832031 141.925781 119.074219 141.117188 121.855469 139.59375 C 124.046875 138.386719 125.464844 136.480469 125.847656 134.214844 C 126.371094 131.128906 124.582031 127.921875 121.394531 126.234375 L 93.601562 111.519531 C 93.273438 111.347656 92.957031 111.152344 92.660156 110.933594 C 86.066406 106.175781 82.5 98.726562 83.113281 91.007812 C 83.726562 83.347656 88.394531 76.507812 95.601562 72.710938 C 98.464844 71.203125 101.570312 70.09375 104.828125 69.410156 L 106.1875 69.125 L 106.1875 60.917969 C 106.1875 60.039062 106.691406 59.328125 107.3125 59.328125 L 117.253906 59.328125 C 117.886719 59.328125 118.378906 60.027344 118.378906 60.917969 L 118.378906 69.066406 L 119.746094 69.347656 C 125.609375 70.550781 130.890625 73.242188 135.007812 77.121094 C 140.226562 82.027344 143.367188 88.636719 143.851562 95.726562 C 143.957031 97.191406 143.804688 97.714844 143.042969 98.527344 C 142.292969 99.332031 140.535156 99.4375 139.085938 99.4375 L 132.636719 99.4375 C 129.652344 99.4375 128.050781 98.421875 127.878906 96.421875 C 127.246094 88.964844 120.914062 83.753906 112.480469 83.753906 C 109.242188 83.753906 106.09375 84.511719 103.378906 85.941406 C 100.839844 87.277344 99.265625 89.539062 99.058594 92.152344 C 98.925781 93.777344 99.324219 95.347656 100.207031 96.691406 C 100.863281 97.6875 101.804688 98.515625 102.992188 99.144531 L 129.207031 113.019531 C 138.226562 117.796875 143.21875 127.28125 141.632812 136.621094 C 140.488281 143.359375 136.207031 149.214844 129.878906 152.6875 C 126.765625 154.398438 123.359375 155.628906 119.753906 156.34375 L 118.378906 156.621094 L 118.378906 163.90625 C 118.378906 164.8125 117.875 165.546875 117.253906 165.546875 L 107.3125 165.546875 " fill-opacity="1" fill-rule="nonzero"/><g clip-path="url(#5070d8ac92)"><path fill="#ffffff" d="M 167.484375 170.46875 C 153.003906 184.421875 133.324219 193.015625 111.671875 193.015625 C 67.292969 193.015625 31.183594 156.910156 31.183594 112.527344 C 31.183594 68.144531 67.292969 32.039062 111.671875 32.039062 C 156.054688 32.039062 192.160156 68.144531 192.160156 112.527344 C 192.160156 115.300781 192.019531 118.042969 191.746094 120.742188 L 203.195312 120.742188 C 203.433594 118.035156 203.566406 115.296875 203.566406 112.527344 C 203.566406 61.859375 162.34375 20.636719 111.671875 20.636719 C 61.003906 20.636719 19.78125 61.859375 19.78125 112.527344 C 19.78125 163.195312 61.003906 204.417969 111.671875 204.417969 C 136.265625 204.417969 158.632812 194.707031 175.144531 178.914062 L 167.484375 170.46875 " fill-opacity="1" fill-rule="nonzero"/></g><g clip-path="url(#2173c7c23d)"><path fill="#ffffff" d="M 203.632812 157.957031 L 203.632812 125.304688 L 173.320312 125.304688 L 173.320312 157.957031 L 162.296875 157.957031 L 188.476562 186.824219 L 214.65625 157.957031 L 203.632812 157.957031 " fill-opacity="1" fill-rule="nonzero"/></g><g fill="#ffffff" fill-opacity="1"><g transform="translate(108.373256, 111.930629)"><g><path d="M 0.375 -1.171875 L 0.828125 -1.171875 L 0.828125 -1 L 0.375 -1 L 0.375 -0.453125 C 0.375 -0.398438 0.378906 -0.351562 0.390625 -0.3125 C 0.398438 -0.269531 0.410156 -0.238281 0.421875 -0.21875 C 0.441406 -0.195312 0.46875 -0.179688 0.5 -0.171875 C 0.53125 -0.160156 0.5625 -0.15625 0.59375 -0.15625 C 0.65625 -0.15625 0.707031 -0.160156 0.75 -0.171875 C 0.789062 -0.191406 0.816406 -0.207031 0.828125 -0.21875 L 0.875 -0.03125 C 0.851562 -0.0195312 0.816406 -0.0078125 0.765625 0 C 0.710938 0.0195312 0.648438 0.03125 0.578125 0.03125 C 0.492188 0.03125 0.425781 0.0195312 0.375 0 C 0.320312 -0.0195312 0.28125 -0.0507812 0.25 -0.09375 C 0.21875 -0.132812 0.195312 -0.1875 0.1875 -0.25 C 0.175781 -0.3125 0.171875 -0.378906 0.171875 -0.453125 L 0.171875 -1.5 L 0.375 -1.546875 Z M 0.375 -1.171875 "/></g></g></g><g fill="#ffffff" fill-opacity="1"><g transform="translate(109.282907, 111.930629)"><g><path d="M 0.390625 0 L 0.1875 0 L 0.1875 -1.171875 L 0.390625 -1.171875 Z M 0.28125 -1.390625 C 0.25 -1.390625 0.21875 -1.398438 0.1875 -1.421875 C 0.164062 -1.453125 0.15625 -1.488281 0.15625 -1.53125 C 0.15625 -1.570312 0.164062 -1.601562 0.1875 -1.625 C 0.21875 -1.65625 0.25 -1.671875 0.28125 -1.671875 C 0.320312 -1.671875 0.351562 -1.65625 0.375 -1.625 C 0.40625 -1.601562 0.421875 -1.570312 0.421875 -1.53125 C 0.421875 -1.488281 0.40625 -1.453125 0.375 -1.421875 C 0.351562 -1.398438 0.320312 -1.390625 0.28125 -1.390625 Z M 0.28125 -1.390625 "/></g></g></g><g fill="#ffffff" fill-opacity="1"><g transform="translate(109.855399, 111.930629)"><g><path d="M 0.1875 -1.140625 C 0.226562 -1.148438 0.285156 -1.160156 0.359375 -1.171875 C 0.441406 -1.191406 0.535156 -1.203125 0.640625 -1.203125 C 0.722656 -1.203125 0.789062 -1.191406 0.84375 -1.171875 C 0.894531 -1.148438 0.9375 -1.117188 0.96875 -1.078125 C 0.976562 -1.085938 0.992188 -1.097656 1.015625 -1.109375 C 1.035156 -1.128906 1.0625 -1.144531 1.09375 -1.15625 C 1.132812 -1.164062 1.171875 -1.175781 1.203125 -1.1875 C 1.242188 -1.195312 1.289062 -1.203125 1.34375 -1.203125 C 1.4375 -1.203125 1.507812 -1.1875 1.5625 -1.15625 C 1.625 -1.132812 1.671875 -1.097656 1.703125 -1.046875 C 1.734375 -1.003906 1.753906 -0.945312 1.765625 -0.875 C 1.773438 -0.8125 1.78125 -0.738281 1.78125 -0.65625 L 1.78125 0 L 1.578125 0 L 1.578125 -0.609375 C 1.578125 -0.679688 1.570312 -0.742188 1.5625 -0.796875 C 1.550781 -0.847656 1.535156 -0.890625 1.515625 -0.921875 C 1.503906 -0.953125 1.476562 -0.972656 1.4375 -0.984375 C 1.40625 -1.003906 1.367188 -1.015625 1.328125 -1.015625 C 1.253906 -1.015625 1.191406 -1.003906 1.140625 -0.984375 C 1.097656 -0.960938 1.066406 -0.945312 1.046875 -0.9375 C 1.054688 -0.894531 1.066406 -0.847656 1.078125 -0.796875 C 1.085938 -0.753906 1.09375 -0.707031 1.09375 -0.65625 L 1.09375 0 L 0.875 0 L 0.875 -0.609375 C 0.875 -0.679688 0.867188 -0.742188 0.859375 -0.796875 C 0.859375 -0.847656 0.847656 -0.890625 0.828125 -0.921875 C 0.804688 -0.953125 0.78125 -0.972656 0.75 -0.984375 C 0.71875 -1.003906 0.675781 -1.015625 0.625 -1.015625 C 0.601562 -1.015625 0.578125 -1.015625 0.546875 -1.015625 C 0.523438 -1.015625 0.503906 -1.007812 0.484375 -1 C 0.460938 -1 0.441406 -1 0.421875 -1 C 0.410156 -1 0.398438 -1 0.390625 -1 L 0.390625 0 L 0.1875 0 Z M 0.1875 -1.140625 "/></g></g></g><g fill="#ffffff" fill-opacity="1"><g transform="translate(111.803682, 111.930629)"><g><path d="M 0.109375 -0.59375 C 0.109375 -0.695312 0.125 -0.785156 0.15625 -0.859375 C 0.1875 -0.929688 0.226562 -0.992188 0.28125 -1.046875 C 0.332031 -1.097656 0.390625 -1.132812 0.453125 -1.15625 C 0.515625 -1.1875 0.582031 -1.203125 0.65625 -1.203125 C 0.8125 -1.203125 0.929688 -1.148438 1.015625 -1.046875 C 1.097656 -0.953125 1.140625 -0.804688 1.140625 -0.609375 C 1.140625 -0.597656 1.140625 -0.582031 1.140625 -0.5625 C 1.140625 -0.550781 1.140625 -0.539062 1.140625 -0.53125 L 0.328125 -0.53125 C 0.335938 -0.40625 0.375 -0.3125 0.4375 -0.25 C 0.5 -0.1875 0.597656 -0.15625 0.734375 -0.15625 C 0.804688 -0.15625 0.867188 -0.160156 0.921875 -0.171875 C 0.972656 -0.191406 1.007812 -0.207031 1.03125 -0.21875 L 1.0625 -0.03125 C 1.039062 -0.0195312 0.992188 -0.0078125 0.921875 0 C 0.859375 0.0195312 0.785156 0.03125 0.703125 0.03125 C 0.609375 0.03125 0.519531 0.015625 0.4375 -0.015625 C 0.363281 -0.046875 0.300781 -0.0859375 0.25 -0.140625 C 0.207031 -0.203125 0.171875 -0.269531 0.140625 -0.34375 C 0.117188 -0.414062 0.109375 -0.5 0.109375 -0.59375 Z M 0.921875 -0.703125 C 0.921875 -0.796875 0.894531 -0.875 0.84375 -0.9375 C 0.800781 -1 0.738281 -1.03125 0.65625 -1.03125 C 0.601562 -1.03125 0.554688 -1.019531 0.515625 -1 C 0.484375 -0.976562 0.453125 -0.953125 0.421875 -0.921875 C 0.398438 -0.890625 0.378906 -0.851562 0.359375 -0.8125 C 0.347656 -0.78125 0.34375 -0.742188 0.34375 -0.703125 Z M 0.921875 -0.703125 "/></g></g></g></svg>