<svg xmlns="http://www.w3.org/2000/svg" xmlns:xlink="http://www.w3.org/1999/xlink" width="300" zoomAndPan="magnify" viewBox="0 0 224.87999 225" height="300" preserveAspectRatio="xMidYMid meet" version="1.0"><defs><g/><clipPath id="7cfd4be582"><path d="M 22.488281 22.03125 L 203.890625 22.03125 L 203.890625 202.683594 L 22.488281 202.683594 Z M 22.488281 22.03125 " clip-rule="nonzero"/></clipPath></defs><g clip-path="url(#7cfd4be582)"><path fill="#ffffff" d="M 113.066406 33.808594 C 69.675781 33.808594 34.375 69.105469 34.375 112.5 C 34.375 155.890625 69.675781 191.195312 113.066406 191.195312 C 156.457031 191.195312 191.757812 155.890625 191.757812 112.5 C 191.757812 69.105469 156.457031 33.808594 113.066406 33.808594 Z M 113.066406 202.980469 C 100.855469 202.980469 89.003906 200.589844 77.84375 195.871094 C 67.066406 191.308594 57.394531 184.785156 49.085938 176.480469 C 40.777344 168.171875 34.253906 158.496094 29.695312 147.722656 C 24.980469 136.5625 22.582031 124.710938 22.582031 112.5 C 22.582031 100.289062 24.980469 88.4375 29.695312 77.277344 C 34.253906 66.5 40.777344 56.824219 49.085938 48.515625 C 57.394531 40.210938 67.066406 33.6875 77.84375 29.132812 C 89.003906 24.410156 100.855469 22.015625 113.066406 22.015625 C 125.277344 22.015625 137.128906 24.410156 148.289062 29.132812 C 159.066406 33.6875 168.738281 40.210938 177.050781 48.515625 C 185.355469 56.824219 191.878906 66.5 196.4375 77.277344 C 201.15625 88.4375 203.550781 100.289062 203.550781 112.5 C 203.550781 124.710938 201.15625 136.5625 196.4375 147.722656 C 191.878906 158.496094 185.355469 168.171875 177.050781 176.480469 C 168.738281 184.785156 159.066406 191.308594 148.289062 195.871094 C 137.128906 200.589844 125.277344 202.980469 113.066406 202.980469 " fill-opacity="1" fill-rule="nonzero"/></g><path fill="#ffffff" d="M 115.351562 56.070312 L 110.78125 56.070312 C 110.414062 56.070312 110.109375 55.765625 110.109375 55.398438 L 110.109375 41.355469 C 110.109375 40.984375 110.414062 40.683594 110.78125 40.683594 L 115.351562 40.683594 C 115.71875 40.683594 116.023438 40.984375 116.023438 41.355469 L 116.023438 55.398438 C 116.023438 55.765625 115.71875 56.070312 115.351562 56.070312 " fill-opacity="1" fill-rule="nonzero"/><path fill="#ffffff" d="M 115.351562 184.316406 L 110.78125 184.316406 C 110.414062 184.316406 110.109375 184.011719 110.109375 183.644531 L 110.109375 169.597656 C 110.109375 169.230469 110.414062 168.929688 110.78125 168.929688 L 115.351562 168.929688 C 115.71875 168.929688 116.023438 169.230469 116.023438 169.597656 L 116.023438 183.644531 C 116.023438 184.011719 115.71875 184.316406 115.351562 184.316406 " fill-opacity="1" fill-rule="nonzero"/><path fill="#ffffff" d="M 154.582031 74.214844 L 151.351562 70.984375 C 151.09375 70.71875 151.09375 70.292969 151.351562 70.035156 L 161.28125 60.105469 C 161.542969 59.839844 161.972656 59.839844 162.234375 60.105469 L 165.460938 63.332031 C 165.722656 63.59375 165.722656 64.019531 165.460938 64.285156 L 155.53125 74.214844 C 155.273438 74.472656 154.84375 74.472656 154.582031 74.214844 " fill-opacity="1" fill-rule="nonzero"/><path fill="#ffffff" d="M 63.898438 164.894531 L 60.667969 161.667969 C 60.410156 161.402344 60.410156 160.976562 60.667969 160.714844 L 70.597656 150.785156 C 70.859375 150.523438 71.289062 150.523438 71.550781 150.785156 L 74.78125 154.015625 C 75.039062 154.277344 75.039062 154.703125 74.78125 154.964844 L 64.851562 164.894531 C 64.589844 165.15625 64.160156 165.15625 63.898438 164.894531 " fill-opacity="1" fill-rule="nonzero"/><path fill="#ffffff" d="M 169.496094 114.785156 L 169.496094 110.214844 C 169.496094 109.84375 169.796875 109.542969 170.167969 109.542969 L 184.210938 109.542969 C 184.582031 109.542969 184.882812 109.84375 184.882812 110.214844 L 184.882812 114.785156 C 184.882812 115.152344 184.582031 115.457031 184.210938 115.457031 L 170.167969 115.457031 C 169.796875 115.457031 169.496094 115.152344 169.496094 114.785156 " fill-opacity="1" fill-rule="nonzero"/><path fill="#ffffff" d="M 41.25 114.785156 L 41.25 110.214844 C 41.25 109.84375 41.554688 109.542969 41.921875 109.542969 L 55.964844 109.542969 C 56.335938 109.542969 56.636719 109.84375 56.636719 110.214844 L 56.636719 114.785156 C 56.636719 115.152344 56.335938 115.457031 55.964844 115.457031 L 41.921875 115.457031 C 41.554688 115.457031 41.25 115.152344 41.25 114.785156 " fill-opacity="1" fill-rule="nonzero"/><path fill="#ffffff" d="M 151.351562 154.015625 L 154.582031 150.785156 C 154.84375 150.523438 155.273438 150.523438 155.53125 150.785156 L 165.460938 160.714844 C 165.722656 160.976562 165.722656 161.402344 165.460938 161.667969 L 162.234375 164.894531 C 161.972656 165.15625 161.542969 165.15625 161.28125 164.894531 L 151.351562 154.964844 C 151.09375 154.703125 151.09375 154.277344 151.351562 154.015625 " fill-opacity="1" fill-rule="nonzero"/><path fill="#ffffff" d="M 60.667969 63.332031 L 63.898438 60.105469 C 64.160156 59.839844 64.589844 59.839844 64.851562 60.105469 L 74.78125 70.035156 C 75.039062 70.292969 75.039062 70.71875 74.78125 70.984375 L 71.550781 74.214844 C 71.289062 74.472656 70.859375 74.472656 70.597656 74.214844 L 60.667969 64.285156 C 60.410156 64.019531 60.410156 63.59375 60.667969 63.332031 " fill-opacity="1" fill-rule="nonzero"/><path fill="#ffffff" d="M 145.289062 137.152344 L 120.710938 112.574219 C 120.710938 112.550781 120.714844 112.523438 120.714844 112.5 C 120.714844 110.789062 120.152344 109.214844 119.207031 107.9375 L 119.207031 73.296875 C 119.207031 69.921875 116.445312 67.15625 113.066406 67.15625 C 109.691406 67.15625 106.925781 69.921875 106.925781 73.296875 L 106.925781 107.9375 C 105.980469 109.214844 105.417969 110.789062 105.417969 112.5 C 105.417969 115.804688 107.519531 118.625 110.464844 119.691406 L 136.605469 145.832031 C 138.992188 148.222656 142.898438 148.222656 145.289062 145.832031 C 147.675781 143.445312 147.675781 139.539062 145.289062 137.152344 " fill-opacity="1" fill-rule="nonzero"/><g fill="#ffffff" fill-opacity="1"><g transform="translate(108.373256, 111.930629)"><g><path d="M 0.375 -1.171875 L 0.828125 -1.171875 L 0.828125 -1 L 0.375 -1 L 0.375 -0.453125 C 0.375 -0.398438 0.378906 -0.351562 0.390625 -0.3125 C 0.398438 -0.269531 0.410156 -0.238281 0.421875 -0.21875 C 0.441406 -0.195312 0.46875 -0.179688 0.5 -0.171875 C 0.53125 -0.160156 0.5625 -0.15625 0.59375 -0.15625 C 0.65625 -0.15625 0.707031 -0.160156 0.75 -0.171875 C 0.789062 -0.191406 0.816406 -0.207031 0.828125 -0.21875 L 0.875 -0.03125 C 0.851562 -0.0195312 0.816406 -0.0078125 0.765625 0 C 0.710938 0.0195312 0.648438 0.03125 0.578125 0.03125 C 0.492188 0.03125 0.425781 0.0195312 0.375 0 C 0.320312 -0.0195312 0.28125 -0.0507812 0.25 -0.09375 C 0.21875 -0.132812 0.195312 -0.1875 0.1875 -0.25 C 0.175781 -0.3125 0.171875 -0.378906 0.171875 -0.453125 L 0.171875 -1.5 L 0.375 -1.546875 Z M 0.375 -1.171875 "/></g></g></g><g fill="#ffffff" fill-opacity="1"><g transform="translate(109.282907, 111.930629)"><g><path d="M 0.390625 0 L 0.1875 0 L 0.1875 -1.171875 L 0.390625 -1.171875 Z M 0.28125 -1.390625 C 0.25 -1.390625 0.21875 -1.398438 0.1875 -1.421875 C 0.164062 -1.453125 0.15625 -1.488281 0.15625 -1.53125 C 0.15625 -1.570312 0.164062 -1.601562 0.1875 -1.625 C 0.21875 -1.65625 0.25 -1.671875 0.28125 -1.671875 C 0.320312 -1.671875 0.351562 -1.65625 0.375 -1.625 C 0.40625 -1.601562 0.421875 -1.570312 0.421875 -1.53125 C 0.421875 -1.488281 0.40625 -1.453125 0.375 -1.421875 C 0.351562 -1.398438 0.320312 -1.390625 0.28125 -1.390625 Z M 0.28125 -1.390625 "/></g></g></g><g fill="#ffffff" fill-opacity="1"><g transform="translate(109.855399, 111.930629)"><g><path d="M 0.1875 -1.140625 C 0.226562 -1.148438 0.285156 -1.160156 0.359375 -1.171875 C 0.441406 -1.191406 0.535156 -1.203125 0.640625 -1.203125 C 0.722656 -1.203125 0.789062 -1.191406 0.84375 -1.171875 C 0.894531 -1.148438 0.9375 -1.117188 0.96875 -1.078125 C 0.976562 -1.085938 0.992188 -1.097656 1.015625 -1.109375 C 1.035156 -1.128906 1.0625 -1.144531 1.09375 -1.15625 C 1.132812 -1.164062 1.171875 -1.175781 1.203125 -1.1875 C 1.242188 -1.195312 1.289062 -1.203125 1.34375 -1.203125 C 1.4375 -1.203125 1.507812 -1.1875 1.5625 -1.15625 C 1.625 -1.132812 1.671875 -1.097656 1.703125 -1.046875 C 1.734375 -1.003906 1.753906 -0.945312 1.765625 -0.875 C 1.773438 -0.8125 1.78125 -0.738281 1.78125 -0.65625 L 1.78125 0 L 1.578125 0 L 1.578125 -0.609375 C 1.578125 -0.679688 1.570312 -0.742188 1.5625 -0.796875 C 1.550781 -0.847656 1.535156 -0.890625 1.515625 -0.921875 C 1.503906 -0.953125 1.476562 -0.972656 1.4375 -0.984375 C 1.40625 -1.003906 1.367188 -1.015625 1.328125 -1.015625 C 1.253906 -1.015625 1.191406 -1.003906 1.140625 -0.984375 C 1.097656 -0.960938 1.066406 -0.945312 1.046875 -0.9375 C 1.054688 -0.894531 1.066406 -0.847656 1.078125 -0.796875 C 1.085938 -0.753906 1.09375 -0.707031 1.09375 -0.65625 L 1.09375 0 L 0.875 0 L 0.875 -0.609375 C 0.875 -0.679688 0.867188 -0.742188 0.859375 -0.796875 C 0.859375 -0.847656 0.847656 -0.890625 0.828125 -0.921875 C 0.804688 -0.953125 0.78125 -0.972656 0.75 -0.984375 C 0.71875 -1.003906 0.675781 -1.015625 0.625 -1.015625 C 0.601562 -1.015625 0.578125 -1.015625 0.546875 -1.015625 C 0.523438 -1.015625 0.503906 -1.007812 0.484375 -1 C 0.460938 -1 0.441406 -1 0.421875 -1 C 0.410156 -1 0.398438 -1 0.390625 -1 L 0.390625 0 L 0.1875 0 Z M 0.1875 -1.140625 "/></g></g></g><g fill="#ffffff" fill-opacity="1"><g transform="translate(111.803682, 111.930629)"><g><path d="M 0.109375 -0.59375 C 0.109375 -0.695312 0.125 -0.785156 0.15625 -0.859375 C 0.1875 -0.929688 0.226562 -0.992188 0.28125 -1.046875 C 0.332031 -1.097656 0.390625 -1.132812 0.453125 -1.15625 C 0.515625 -1.1875 0.582031 -1.203125 0.65625 -1.203125 C 0.8125 -1.203125 0.929688 -1.148438 1.015625 -1.046875 C 1.097656 -0.953125 1.140625 -0.804688 1.140625 -0.609375 C 1.140625 -0.597656 1.140625 -0.582031 1.140625 -0.5625 C 1.140625 -0.550781 1.140625 -0.539062 1.140625 -0.53125 L 0.328125 -0.53125 C 0.335938 -0.40625 0.375 -0.3125 0.4375 -0.25 C 0.5 -0.1875 0.597656 -0.15625 0.734375 -0.15625 C 0.804688 -0.15625 0.867188 -0.160156 0.921875 -0.171875 C 0.972656 -0.191406 1.007812 -0.207031 1.03125 -0.21875 L 1.0625 -0.03125 C 1.039062 -0.0195312 0.992188 -0.0078125 0.921875 0 C 0.859375 0.0195312 0.785156 0.03125 0.703125 0.03125 C 0.609375 0.03125 0.519531 0.015625 0.4375 -0.015625 C 0.363281 -0.046875 0.300781 -0.0859375 0.25 -0.140625 C 0.207031 -0.203125 0.171875 -0.269531 0.140625 -0.34375 C 0.117188 -0.414062 0.109375 -0.5 0.109375 -0.59375 Z M 0.921875 -0.703125 C 0.921875 -0.796875 0.894531 -0.875 0.84375 -0.9375 C 0.800781 -1 0.738281 -1.03125 0.65625 -1.03125 C 0.601562 -1.03125 0.554688 -1.019531 0.515625 -1 C 0.484375 -0.976562 0.453125 -0.953125 0.421875 -0.921875 C 0.398438 -0.890625 0.378906 -0.851562 0.359375 -0.8125 C 0.347656 -0.78125 0.34375 -0.742188 0.34375 -0.703125 Z M 0.921875 -0.703125 "/></g></g></g></svg>